<?xml version="1.0" encoding="UTF-8"?> <svg xmlns="http://www.w3.org/2000/svg" width="900" height="600" viewBox="0 0 900 600" fill="none"><g clip-path="url(#clip0)"><path d="M153.982 407.392V425.743C151.451 425.743 149.236 424.794 147.496 423.054C145.914 421.472 144.807 419.099 144.807 416.568C144.807 414.037 145.756 411.664 147.496 410.082C149.078 408.5 151.451 407.392 153.982 407.392ZM153.982 360.249V321.964C147.812 320.857 142.117 321.49 137.055 325.445C130.727 330.507 125.981 340.79 123.608 360.407L129.778 362.938C129.778 362.938 142.75 346.802 153.982 360.249ZM153.982 311.207C128.037 317.06 112.692 344.745 110.635 348.7C110.477 349.491 110.319 351.706 110.794 354.395L113.958 361.672C115.065 363.254 116.647 364.836 118.704 366.26C120.602 367.526 123.133 368.791 125.981 369.741C139.111 374.17 149.078 368.159 153.824 364.045V399.799C148.287 404.07 140.535 406.601 130.094 405.81C94.0244 402.804 97.0302 361.198 97.5048 356.452C94.9736 341.739 97.1884 324.97 103.991 311.523C110.161 299.342 120.127 289.85 133.733 287.002C141.01 285.42 147.812 285.262 154.14 286.211V311.207H153.982ZM153.982 425.902V407.55C156.513 407.55 158.886 408.658 160.468 410.24C162.05 411.822 163.158 414.195 163.158 416.726C163.158 419.257 162.05 421.63 160.468 423.212C158.728 424.794 156.513 425.902 153.982 425.902ZM172.966 349.649V353.288C172.808 352.655 172.808 352.022 172.808 351.389C172.808 350.757 172.808 350.124 172.966 349.649ZM172.966 255.204V273.555C170.435 273.555 168.22 272.606 166.48 270.866C164.74 269.284 163.791 266.911 163.791 264.379C163.791 261.848 164.74 259.633 166.48 257.893C168.22 256.153 170.435 255.204 172.966 255.204ZM153.982 364.045V399.799C167.271 389.674 168.853 370.532 169.011 366.735C169.486 365.469 169.96 364.204 170.277 362.938C172.808 355.028 173.124 346.327 171.701 339.524C170.119 331.931 166.638 326.077 161.576 324.021C161.259 323.863 160.943 323.704 160.627 323.546C158.412 322.913 156.197 322.281 153.982 321.964V360.249C154.615 360.881 155.09 361.672 155.564 362.463C155.09 362.938 154.615 363.413 153.982 364.045ZM172.966 318.326C169.486 314.212 166.796 311.365 165.373 310.099C161.418 309.941 157.463 310.416 153.824 311.207V286.053C155.722 286.369 157.621 286.686 159.361 287.16C164.265 288.426 168.695 290.166 172.808 292.539V318.326H172.966ZM172.966 453.428C172.017 452.163 171.068 450.581 170.435 448.841C169.644 446.942 169.011 445.044 168.695 442.829C168.22 440.14 168.062 437.292 168.22 434.444C168.378 431.755 168.695 428.907 169.328 426.376C169.169 425.111 168.853 423.845 168.695 422.579C168.537 420.997 168.378 419.415 168.378 417.675C168.22 415.302 168.22 412.929 168.378 410.398C168.695 407.867 169.011 405.336 169.644 402.488L169.802 401.697L169.96 401.064C170.119 400.431 170.277 399.799 170.435 399.324C170.593 398.691 170.751 398.217 170.91 397.584C171.542 395.211 172.333 392.996 173.124 390.781V453.428H172.966ZM172.966 273.555C175.497 273.555 177.87 272.606 179.452 270.866C181.034 269.284 182.142 266.911 182.142 264.379C182.142 261.848 181.034 259.633 179.452 257.893C177.712 256.311 175.497 255.204 172.966 255.204V273.555ZM172.966 353.288C173.283 355.028 174.232 356.768 175.497 358.034C177.238 359.774 179.452 360.723 182.142 360.723C184.673 360.723 187.046 359.774 188.786 358.034C190.526 356.294 191.476 354.079 191.476 351.389C191.476 348.7 190.368 346.485 188.786 344.745C187.204 343.163 184.831 342.056 182.142 342.056C179.611 342.056 177.238 343.163 175.497 344.745C174.232 346.011 173.283 347.751 172.966 349.649V353.288ZM494.429 282.256V188.76L493.796 188.602L491.106 187.969V185.279V167.403V164.081H494.429L551.222 162.34H554.703V165.821V176.737C559.923 165.821 566.884 158.86 574.478 155.538C580.173 152.848 586.185 152.374 592.038 153.481C597.733 154.589 603.428 157.278 608.333 161.391C614.661 166.612 620.039 174.205 623.362 183.697C627.158 167.877 633.803 156.803 641.871 150.317C647.25 145.729 653.261 143.198 659.431 142.565C665.601 141.933 671.771 143.198 677.466 146.362C682.687 149.21 687.433 153.481 691.546 159.335V150.634V147.153H695.026H725.401C734.734 147.153 749.131 150.634 759.255 163.448C766.058 172.149 771.12 184.963 771.12 203.947C771.12 250.774 737.266 260.741 737.107 260.741L736.316 260.899L695.184 262.797L691.546 262.956V259.317V250.458C686.325 258.368 678.732 265.012 667.499 268.018C642.504 274.662 630.164 258.684 624.627 246.661C620.514 259.633 610.231 279.092 586.185 285.578C552.33 294.596 546.476 249.983 545.527 237.011H540.781H537.301V233.53V229.417L525.91 230.683V274.662H526.227L530.498 273.397V277.826V294.912V297.601L527.967 298.234L494.903 307.093L491.423 308.043L489.05 308.834C488.892 308.834 471.648 314.845 466.585 315.32C459.466 315.794 458.834 310.89 458.834 308.992L449.025 272.131C448.551 272.131 448.076 272.131 447.918 272.289V293.488L449.816 293.014L454.246 291.748V296.336V316.585V319.117L451.873 319.908L385.429 342.372L380.841 343.954V339.208V316.269V313.738L383.372 312.947L386.062 311.998L384.954 304.404L365.654 310.574L363.755 321.648L367.394 320.699V325.128V344.587V346.96L365.179 347.751L337.336 358.35V359.932V368.159V369.582L336.387 370.532L333.697 373.221V376.543V376.227L333.856 374.012L335.912 373.221L350.783 366.893L356.32 364.678L355.529 370.532C355.529 370.532 355.054 374.012 360.117 387.143V378.6C359.168 377.651 357.902 376.227 357.269 374.17C356.478 371.006 357.269 365.944 357.269 365.944L357.586 364.045L359.484 363.254L371.665 358.508L371.824 358.35V357.085C371.824 357.085 371.824 351.389 378.943 352.022C380.683 352.18 382.107 352.655 383.214 353.13L399.192 347.434C399.667 344.903 401.249 341.423 405.362 341.423C408.21 341.423 409.95 342.688 411.057 343.796V343.638L412.481 343.163L438.742 333.513C438.742 333.513 439.85 333.196 441.273 333.196V331.931L444.596 331.773L449.342 331.456C451.556 330.349 458.675 327.027 467.376 327.027C472.913 327.027 477.185 329.083 480.191 333.987V325.128V322.597L482.722 321.964L497.593 317.693L501.073 316.585L502.022 320.066L507.401 340.474V334.146L505.344 330.349L504.87 328.609V318.484V315.953L507.243 315.162L520.215 310.89L524.803 309.308V314.212V326.394V327.818L523.854 328.767L522.588 330.191V394.262L533.504 310.416L533.82 308.517L535.561 307.726L546.002 303.297L550.115 301.398L550.748 305.828L562.296 386.668L563.562 387.301L563.878 387.459V386.51L565.619 385.561L568.783 383.662V331.614C566.568 336.36 559.291 334.462 559.291 334.462L556.759 333.829V331.14V302.822V301.24L557.867 300.133C559.765 298.392 561.189 297.285 562.771 296.494C564.986 295.387 567.042 295.387 569.257 296.652C570.365 297.285 571.472 297.76 572.263 297.918C575.111 297.127 583.179 294.754 584.761 294.279C584.761 294.279 584.761 294.121 585.077 293.805C585.235 293.488 585.394 293.172 585.71 292.539C588.083 288.584 594.727 289.217 594.727 289.217L597.891 289.533V292.223L613.395 287.002L617.983 285.42V290.166V298.867C622.412 289.375 628.424 284.471 632.695 282.572C634.594 281.781 636.967 281.307 639.34 281.307C642.029 281.307 645.035 281.94 647.724 283.996C649.623 285.262 651.521 287.318 653.103 289.85C652.945 288.9 652.945 288.268 652.945 288.268V287.951L654.211 281.465L654.685 278.934L657.375 278.776L670.031 277.826H672.245L673.195 279.883L676.359 286.211V281.307V278.617L678.89 277.985L691.862 274.504L696.292 273.239V277.668V285.42V286.844L695.184 287.793L693.444 289.533V331.298L693.602 331.14L705.467 274.821L706.1 272.131H708.948H719.705H722.395L723.028 274.821L733.627 321.331C733.627 321.331 734.102 323.388 734.893 323.388C735.209 323.388 733.943 317.693 733.943 317.693V317.376V287.16C731.887 285.895 729.039 283.522 729.039 280.99V275.295V271.815H732.52H750.08H753.56V275.295V282.256V285.104L750.871 285.736C751.345 292.697 750.871 319.433 750.871 322.597C750.871 322.755 751.029 323.23 751.345 323.23C751.662 323.23 752.136 318.8 752.136 318.8L752.295 317.218L753.877 316.427L759.888 312.947L765.109 309.941V315.953V333.038V336.519H761.628H752.136C753.402 337.942 754.509 339.841 754.984 342.214C755.617 345.061 755.3 348.7 753.56 352.813C751.978 356.768 748.972 361.514 744.226 367.051C732.994 380.182 712.745 387.301 693.919 394.103C672.245 401.697 652.945 408.658 655.476 421.947L655.951 424.636L653.42 425.743L647.092 428.591L642.187 430.806L642.346 425.269C642.346 424.952 642.346 424.478 642.346 424.161L635.385 427.325L633.17 424.952L632.221 425.902L618.932 433.653L614.186 428.907L617.35 423.37C616.559 423.37 615.926 423.212 615.135 422.896C613.237 422.105 612.129 420.365 611.813 418.15C611.813 417.201 611.813 416.093 611.971 415.144C602.005 419.099 589.981 420.839 580.489 421.947C578.907 422.105 577.484 422.421 576.06 422.579L575.743 426.06C575.269 430.173 574.32 433.812 572.896 437.134C570.048 444.095 565.619 449.157 561.347 452.321C556.759 455.801 552.013 457.225 548.849 456.909C548.217 456.909 547.584 456.751 546.951 456.434C545.844 455.96 544.578 455.327 543.312 454.378C541.572 452.796 539.832 450.581 539.357 447.417C538.725 444.569 539.041 441.089 540.781 436.659C542.363 432.704 545.369 427.958 550.115 422.421C561.347 409.291 581.597 402.172 600.423 395.369C621.621 387.934 640.764 381.131 639.023 368.317C637.758 369.582 636.809 370.215 636.809 370.215L636.176 370.532C628.899 373.854 622.571 374.328 617.666 368.159C615.926 366.102 614.661 363.254 613.395 359.458V363.413L615.61 365.627L616.717 368.159V376.543V378.758L614.819 379.707L596.784 388.566L591.88 390.939V385.402V375.436L592.354 373.696L593.62 371.323V324.495H592.829H587.925H586.343V378.125H588.558V381.606V390.307V392.521L586.501 393.471L567.201 402.33L562.296 404.545V403.912L561.98 404.07L543.471 414.669L538.25 417.675V411.664V400.273V398.849L539.199 397.9L541.098 396.002L540.465 390.623L534.295 393.154C534.137 395.053 533.82 397.9 533.82 399.008C533.82 400.115 534.611 401.222 534.611 401.222L535.244 403.121V415.777V418.15L533.029 419.099L521.481 424.003L516.735 426.06V425.269L509.141 427.325L505.819 428.275L504.87 424.952L496.169 392.205V413.404L499.333 415.777L500.757 416.884V418.466V429.066V431.755L498.225 432.388L484.62 436.026L480.349 437.292V436.659L467.535 440.298L464.529 441.089V441.563L461.839 442.196L445.07 445.993L440.799 447.1V446.309L411.69 452.637L407.419 453.587V449.315V438.716V436.976L408.842 435.868C408.842 435.868 410.424 434.603 410.424 433.337V379.549H407.893H402.198H401.091V434.919L402.831 438.083L403.305 439.823V450.897V453.903L400.3 454.378L382.265 457.067L378.31 457.542V453.587V441.089V439.665L379.259 438.558L380.841 436.976V388.408L380.683 389.674H377.519H374.038C373.247 389.674 372.773 389.041 372.298 387.775C372.298 409.291 372.298 453.27 372.298 453.587V457.067H368.818H361.382H358.851L358.06 454.694L348.726 424.952V441.722L350.15 443.145L351.099 445.677V454.536V458.016H347.619H337.178H336.229V458.649H332.748H311.233H310.6C304.589 457.383 306.803 445.518 306.803 445.518L307.12 443.936L308.544 443.145L310.758 441.88V383.346L308.069 381.764L306.329 380.656V378.6V370.69V370.373L305.538 370.69V365.627V344.27V342.372L307.278 341.265L311.708 338.733V216.445C306.012 222.773 305.538 243.181 305.538 243.339L305.38 246.661H302.057H294.622H291.142V243.181V189.551L285.921 212.964L284.972 214.705L279.751 219.609L275.796 223.406L274.214 218.185C274.214 218.027 261.242 176.262 246.213 194.771C238.619 204.105 249.851 215.179 263.457 228.626C278.644 243.655 296.679 261.532 297.153 284.629C297.786 309.15 295.255 336.519 286.712 359.299C279.909 377.651 269.152 393.154 253.174 402.33C253.648 431.597 233.24 445.202 231.975 446.151L228.969 448.05L227.071 445.202L224.539 441.247L222.483 438.083L223.59 437.608C221.534 437.292 219.635 436.343 218.211 434.919C214.889 442.513 210.143 448.999 203.657 453.428C200.177 455.801 197.013 457.383 194.007 458.491C190.685 459.756 187.679 460.073 184.831 459.915C182.616 459.756 180.402 459.124 178.661 458.174C176.763 457.225 175.023 455.801 173.757 454.061L173.441 453.587V390.939C175.497 385.244 178.029 379.707 180.56 374.803C184.989 366.26 189.735 359.141 193.849 353.762C187.837 337.942 179.452 326.077 173.441 318.642V292.697L175.023 293.646V291.748L194.798 232.581L195.114 231.79C195.114 231.79 194.481 232.265 195.747 230.683C195.589 228.152 195.747 225.462 196.222 222.773C197.013 218.027 198.595 213.281 201.917 209.642C205.239 205.845 210.143 203.314 217.104 202.84C218.686 202.681 220.426 202.681 222.166 202.84C224.223 187.652 228.336 173.256 235.139 162.815C241.467 153.007 250.326 146.679 262.191 146.362H262.507C262.507 146.362 271.841 147.153 276.904 153.007C278.486 154.905 279.751 156.012 280.7 156.487C281.491 154.905 281.491 151.266 281.491 151.266L287.661 149.21L296.837 160.126L297.944 161.391L297.628 162.973L293.673 180.692H295.097H306.171H308.86L309.493 183.381L309.967 185.438L344.613 178.477L345.088 175.471L345.562 172.94L348.094 172.623L359.484 171.358L363.281 170.883V174.68V206.953C364.546 198.726 365.496 192.873 365.812 190.816C367.552 180.533 371.033 178.319 373.247 178.002C373.247 178.002 377.993 177.053 384.163 177.053C392.39 177.053 394.13 182.432 394.13 182.432L394.288 182.748L416.436 303.297L418.018 302.822V200.941H417.227H413.747V197.461V176.737V173.414L417.069 173.256C417.227 173.256 451.398 171.832 462.156 171.832C469.275 171.832 476.868 175.629 482.405 183.697C486.835 190.025 490.157 199.201 490.632 211.224C491.106 221.033 489.841 229.575 487.784 236.378C484.462 248.085 478.767 255.362 476.71 256.469C476.394 256.628 476.394 256.944 476.394 257.26C477.659 261.215 485.886 285.578 486.36 285.895C487.31 286.686 486.044 284.629 486.044 284.629L491.581 280.358V283.047L493.321 282.572L494.429 282.256Z" fill="#CFA080"></path><path d="M481.931 169.934V167.245V163.923V155.063L490.948 154.747L494.271 154.589L551.064 152.849L554.545 152.69L561.506 152.374C564.511 150.001 567.675 148.103 570.839 146.521C574.478 144.939 578.275 143.831 582.072 143.357C585.868 142.882 589.823 143.04 593.778 143.831C597.575 144.464 601.056 145.73 604.536 147.47C607.858 149.052 611.18 151.267 614.344 153.798C617.034 156.013 619.407 158.544 621.78 161.233C622.096 160.442 622.571 159.809 622.887 159.177C626.684 152.374 631.272 146.837 636.176 142.724C639.656 139.876 643.137 137.661 646.775 136.079C650.572 134.339 654.685 133.39 658.64 132.915C662.595 132.441 666.709 132.757 670.664 133.548C674.619 134.339 678.415 135.763 681.896 137.661L682.37 137.978V137.345H691.546H695.026H725.401C731.887 137.345 740.113 138.769 748.498 142.724C754.826 145.73 761.312 150.476 766.691 157.278C771.121 162.657 774.759 169.46 777.132 178.002C779.189 185.28 780.454 193.664 780.454 203.473C780.454 237.327 764.318 254.571 752.453 262.639H753.402H762.736V271.815V275.295V282.256V285.104V292.539L760.205 293.014C760.205 295.703 760.205 298.867 760.205 302.031L760.521 301.873L774.285 293.963V309.941V315.953V333.038V336.519V345.694H765.109H764.318C764.318 346.644 764.16 347.593 764.16 348.542C763.843 351.073 763.211 353.763 762.103 356.452C760.996 358.983 759.572 361.831 757.674 364.837C756.092 367.368 753.877 370.215 751.187 373.221C744.701 380.815 735.684 386.668 725.875 391.414C716.542 395.844 706.575 399.324 697.083 402.805C686.642 406.601 676.833 410.082 670.505 413.879C666.709 416.252 664.336 418.308 664.652 420.365L665.127 423.054L666.392 430.173L659.748 433.179L657.217 434.286L651.047 437.134L645.984 439.349L632.537 445.202L632.854 437.925L631.905 436.976L623.678 441.722L617.508 445.202L612.604 440.298L607.858 435.552L602.796 430.648L604.694 427.484H604.061C602.163 427.958 600.106 428.433 598.208 428.749C593.62 429.699 589.032 430.331 584.761 430.806C584.603 431.913 584.286 433.021 584.128 433.97C583.495 436.343 582.863 438.4 582.072 440.456C580.49 444.411 578.275 448.05 576.06 451.055C573.371 454.694 570.365 457.542 567.517 459.598C564.511 461.813 561.506 463.395 558.658 464.502C555.019 465.768 551.381 466.401 548.533 465.926C547.9 465.926 547.109 465.768 546.477 465.452C545.686 465.294 544.895 465.135 544.262 464.819C543.313 464.503 542.205 463.87 541.098 463.237C540.149 462.604 539.199 461.971 538.25 461.18C536.51 459.757 534.928 458.016 533.662 455.643C532.555 453.745 531.764 451.53 531.131 448.999C530.657 446.468 530.498 443.778 530.815 440.931C531.131 438.4 531.764 435.71 533.03 433.021C533.188 432.546 533.346 432.072 533.662 431.597L530.182 433.654V430.806L526.227 432.388L521.481 434.445L511.04 438.874L510.249 439.032L508.667 439.665V439.349L504.079 440.614L501.548 441.247L487.468 445.044L483.197 446.151L474.337 448.524V448.841L467.06 450.581L464.371 451.214L447.602 455.01L443.33 455.96L432.098 458.491V457.542L414.221 461.497L413.272 461.655V461.813L411.69 461.971L409.95 462.446L398.718 464.819V463.87L384.322 465.926L382.423 466.243H382.107L380.367 466.401L369.925 467.983V466.243H369.767H362.332H361.383V467.034H352.207H348.727H345.563V467.666H336.387H332.907H311.391H310.442H309.809H308.86C294.622 464.819 297.628 445.202 297.786 443.778L298.103 442.196L298.894 438.083L301.583 436.501V388.567L297.153 386.035V383.979L296.521 384.295V370.69V365.628V358.667C296.204 359.774 295.73 361.04 295.255 362.305C291.3 372.588 286.238 382.239 279.751 390.623C274.689 396.951 268.836 402.646 262.191 407.234C261.242 421.63 256.021 432.388 250.643 439.982C248.428 442.987 246.213 445.519 244.156 447.575L244.631 448.366L236.879 453.587L234.032 455.485L226.28 460.706L221.217 452.796L219.635 450.264L219.319 450.581C216.313 454.378 212.833 457.858 208.72 460.706C206.663 462.13 204.765 463.237 202.866 464.186C200.968 465.294 198.911 466.084 196.855 466.875C194.64 467.666 192.425 468.141 190.527 468.457C188.312 468.774 186.097 468.774 184.04 468.616C182.3 468.458 180.718 468.141 178.978 467.666C177.238 467.192 175.656 466.559 174.232 465.768L169.328 463.237V462.288C168.22 461.339 167.271 460.389 166.48 459.282C165.689 458.333 164.898 457.067 164.107 455.801C163.316 454.536 162.683 453.27 162.209 452.005C161.734 450.739 161.26 449.474 160.785 448.05C160.469 446.784 160.152 445.36 159.836 444.095C159.519 442.196 159.203 440.456 159.203 438.874C159.045 437.292 159.045 435.71 159.203 433.97C157.621 434.445 155.881 434.603 154.141 434.603C151.768 434.603 149.395 434.128 147.18 433.179C144.965 432.23 142.908 430.964 141.168 429.224C139.428 427.484 138.162 425.427 137.213 423.212C136.264 420.998 135.789 418.625 135.789 416.252C135.789 415.777 135.789 415.302 135.948 414.828C133.891 414.828 131.834 414.828 129.778 414.67C106.839 412.929 96.3975 398.691 91.8097 384.295C88.0129 372.747 88.3293 361.04 88.6457 356.61C87.3801 348.542 87.3801 339.999 88.4875 331.615C89.7531 323.072 92.2843 314.687 96.0811 307.094C99.8779 299.658 104.782 293.014 111.11 287.793C116.964 282.889 124.083 279.25 132.151 277.51C137.371 276.403 142.434 275.928 147.338 276.086C152.242 276.086 156.83 276.719 161.101 277.668C160.943 277.51 160.627 277.352 160.469 277.036C158.728 275.295 157.463 273.239 156.514 271.024C155.564 268.809 155.09 266.436 155.09 264.063C155.09 261.69 155.564 259.317 156.514 257.102C157.463 254.729 158.728 252.831 160.469 251.091C162.209 249.509 164.107 248.085 166.48 247.136C168.695 246.187 171.068 245.712 173.441 245.712C175.656 245.712 178.029 246.187 180.085 246.978L185.622 230.367C185.781 229.576 186.097 228.626 186.572 227.677C186.572 226.886 186.572 226.253 186.572 225.621C186.572 224.039 186.73 222.298 187.046 220.875C187.521 217.711 188.47 214.388 189.736 211.224C191.001 208.219 192.741 205.529 194.956 202.998C197.487 200.15 200.81 197.619 204.606 195.879C207.454 194.613 210.776 193.664 214.257 193.19C215.364 187.494 216.63 181.799 218.37 176.579C220.743 169.301 223.749 162.657 227.387 157.12C231.5 150.95 236.405 145.73 242.416 142.249C248.111 138.769 254.598 136.712 262.033 136.554H262.349H262.666H263.299C263.299 136.554 269.152 137.029 275.005 139.876C276.271 140.509 277.537 141.142 278.96 142.091L284.814 140.034L290.825 137.978L294.939 142.882L303.956 153.64L305.063 154.905L308.069 158.386L307.12 162.815L306.804 164.555L305.38 170.883H306.329H309.018H316.296L317.087 174.047L337.02 170.092L338.127 164.081L344.93 163.29L347.461 162.973L358.851 161.708L362.648 161.233L372.931 160.126V168.352C374.039 168.194 376.095 167.719 378.31 167.719C380.208 167.561 382.423 167.403 384.638 167.403C399.667 167.403 403.464 179.268 403.464 179.426L403.622 180.059L403.78 180.375L403.938 180.85L405.204 187.653V176.42V173.098V164.239L414.063 163.923L417.227 163.764H417.385C418.176 163.764 452.664 162.341 462.947 162.341C468.168 162.341 473.705 163.764 478.609 166.612C479.083 167.878 480.507 168.827 481.931 169.934Z" fill="#CFA080"></path><path fill-rule="evenodd" clip-rule="evenodd" d="M153.982 410.873V422.422C150.818 422.422 148.287 419.732 148.287 416.726C148.287 413.562 150.818 410.873 153.982 410.873ZM153.982 325.445C141.01 323.072 130.885 328.292 127.088 360.882C127.088 360.882 141.01 343.638 153.982 355.187V349.175C144.015 341.898 134.207 348.859 134.207 348.859C134.207 348.859 135.789 331.773 151.609 334.779C152.4 334.937 153.191 335.095 153.824 335.253V325.445H153.982ZM153.982 289.534V299.658C150.185 297.76 141.801 296.02 126.613 305.512C104.465 319.433 107.946 338.101 107.946 338.101C122.026 310.416 146.23 303.455 153.982 301.873V307.727C123.924 314.055 107.313 347.593 107.313 347.593C107.313 347.593 106.68 350.915 107.471 355.345L110.952 363.413C113.641 367.051 117.912 370.532 125.031 372.905C138.004 377.334 148.129 372.747 153.982 368.475V381.922C149.236 385.719 142.275 389.358 132.783 389.2C112.534 389.041 106.206 371.481 106.206 371.481C106.206 371.481 104.465 394.895 131.676 397.584C142.592 398.533 149.552 394.895 153.982 390.149V395.211C148.761 400.115 141.326 403.279 130.41 402.488C95.7645 399.799 100.985 356.452 100.985 356.452C96.2391 330.191 107.471 296.02 134.365 290.483C141.484 288.743 147.97 288.584 153.982 289.534ZM153.982 395.053V389.991C160.626 382.713 161.576 373.063 161.576 373.063C161.576 373.063 159.203 377.493 153.982 381.764V368.317C157.937 365.47 159.994 362.78 159.994 362.78C158.095 359.3 156.039 356.769 153.982 355.028V349.017C156.513 350.757 158.886 353.446 161.259 357.243C161.259 357.243 166.954 339.367 153.982 335.095V325.445C155.722 325.761 157.621 326.236 159.519 326.869C168.536 329.716 172.333 349.65 165.531 365.944C165.531 365.944 165.214 384.453 153.982 395.053ZM153.982 422.422V410.873C157.146 410.873 159.677 413.562 159.677 416.568C159.677 419.732 157.146 422.422 153.982 422.422ZM172.966 402.805V445.993C172.491 444.728 172.175 443.462 172.017 442.197C171.068 437.292 171.384 431.597 172.808 426.377C172.175 423.529 171.859 420.523 171.859 417.359C171.542 413.246 171.7 408.5 172.966 403.279V402.805ZM172.966 296.494V313.105C169.327 308.992 166.796 306.777 166.796 306.777C162.208 306.461 157.937 306.777 153.824 307.727V301.873C155.406 301.557 156.197 301.399 156.197 301.399C156.197 301.399 155.406 300.449 153.824 299.5V289.375C161.101 290.641 167.429 293.172 172.966 296.494ZM172.966 258.526V269.917C169.802 269.917 167.271 267.386 167.271 264.222C167.271 261.216 169.802 258.526 172.966 258.526ZM172.966 270.075V258.685C176.13 258.685 178.661 261.216 178.661 264.38C178.661 267.386 176.13 270.075 172.966 270.075ZM182.142 378.126V389.832C180.243 395.528 177.396 405.494 178.187 413.879C179.294 411.664 180.401 409.449 181.509 407.076L182.142 405.811V416.41C181.351 417.992 180.56 419.416 179.927 420.681C180.56 421.947 181.192 423.054 182.142 424.004V440.298C179.61 439.507 177.712 437.767 176.13 435.394C175.972 437.609 176.13 439.665 176.605 441.722C177.079 444.569 178.187 447.101 179.61 448.841C180.401 449.632 181.192 450.423 182.142 450.898V455.802C179.61 455.169 177.554 453.587 175.972 451.689C174.706 450.107 173.599 448.208 172.966 446.152V402.963L173.124 401.856C173.441 400.748 173.757 399.483 174.073 398.533C176.13 391.098 178.978 384.295 182.142 378.126ZM182.142 345.536V357.243C178.819 357.243 176.288 354.712 176.288 351.39C176.288 348.226 178.819 345.536 182.142 345.536ZM182.142 279.567V324.812C178.819 319.908 175.655 315.953 172.966 313.105V296.494C175.814 298.235 178.345 299.975 180.876 302.031C178.978 296.178 177.87 292.539 177.87 292.539L182.142 279.567ZM182.142 357.243C185.306 357.243 187.995 354.712 187.995 351.39C187.995 348.067 185.306 345.536 182.142 345.536V357.243ZM205.081 440.615V447.259C203.973 448.366 202.549 449.315 201.284 450.265C194.639 454.852 189.102 456.435 184.673 456.118C183.724 456.118 182.933 455.96 181.983 455.644V450.739C182.933 451.214 183.882 451.53 184.989 451.53C188.47 451.689 192.899 450.265 198.594 446.468C201.126 444.886 203.34 442.988 205.081 440.615ZM205.081 399.166V400.274V400.59V401.381C204.29 414.195 197.329 433.179 184.515 425.902C183.565 425.269 182.774 424.636 182.142 424.004V440.298C184.198 440.931 186.729 441.089 189.577 440.298C197.012 438.083 201.917 431.755 205.081 424.795V401.223V401.539V399.166ZM205.081 210.433V218.502C203.34 220.875 202.233 224.197 201.917 228.31C202.866 227.677 203.815 227.044 205.081 226.57V240.017C204.606 240.175 204.131 240.491 203.815 240.808C204.131 242.232 204.606 243.814 205.081 245.396V256.944C203.34 252.04 201.917 247.611 200.809 243.339C200.335 243.972 199.702 244.605 199.227 245.396C195.747 250.3 198.753 262.64 205.081 277.352V396.635C205.081 395.527 205.081 394.578 205.081 393.946C204.922 388.092 204.29 382.555 203.34 377.176C196.854 385.877 190.684 398.375 185.622 408.975L182.142 416.094V405.494C187.837 393.787 194.639 380.024 202.391 371.165C201.442 366.893 200.493 362.938 199.227 359.142C194.323 365.628 188.47 374.645 183.882 385.245C183.724 385.561 183.091 387.143 182.3 389.674V377.967C187.204 368.001 192.899 359.774 197.487 353.921C193.057 342.056 187.52 332.247 182.3 324.654V279.409L197.645 233.214C197.645 233.214 197.962 232.423 198.911 231.316C198.278 224.355 199.385 215.654 205.081 210.433ZM205.081 440.615V447.259V440.615ZM205.081 400.432V424.478V400.906V400.432ZM205.081 277.51V397.426V397.268V399.324V400.432V397.268V396.951V396.793V277.51ZM205.081 245.554V257.103V245.554ZM205.081 226.728V240.017V226.728ZM205.081 210.433V218.502V210.433ZM221.692 423.054V433.337C219.793 432.388 218.528 430.49 218.528 428.117C218.686 425.902 219.951 424.004 221.692 423.054ZM221.692 296.02C220.742 298.393 219.635 300.766 218.369 303.139C213.307 294.438 208.719 285.579 205.081 277.352V397.268C205.081 398.217 205.081 399.324 205.081 400.274V424.478C207.928 418.308 209.352 411.664 210.143 407.234V407.076V406.918C210.301 406.285 210.301 405.652 210.459 405.02V404.703C210.618 403.438 210.776 402.647 210.776 402.488C211.725 392.68 210.776 381.764 209.036 370.848C209.352 370.69 209.668 370.374 209.985 370.216C212.674 374.803 215.364 379.075 218.211 383.03C218.528 399.324 217.104 425.902 205.397 440.456V447.101C215.838 437.45 220.268 420.681 222.008 405.178V308.518L221.375 307.568L222.008 306.461V296.02H221.692ZM221.692 285.737V293.489C220.426 290.957 219.16 288.584 217.895 286.211C212.674 276.245 208.403 266.278 205.081 257.103V245.554C208.719 257.102 215.047 271.499 221.692 285.737ZM221.692 225.779V245.396C219.951 243.497 212.832 236.22 205.081 240.175V226.728C208.877 224.988 214.256 224.039 221.692 225.779ZM221.692 206.004V212.174C215.996 212.016 209.036 213.123 205.081 218.502V210.433C208.719 207.269 213.94 205.371 221.692 206.004ZM226.121 422.105V433.654C225.488 433.812 225.014 433.97 224.381 433.97C223.432 433.97 222.483 433.654 221.692 433.337V423.054C222.483 422.58 223.432 422.422 224.381 422.422C224.856 422.422 225.33 422.58 225.805 422.58L226.121 422.105ZM226.121 315.795V392.838C224.856 391.573 223.748 390.307 222.483 389.041C222.483 393.946 222.166 399.641 221.533 405.336V308.676C223.115 311.207 224.697 313.422 226.121 315.795ZM226.121 281.94V302.664L224.856 300.133C223.906 302.348 222.799 304.563 221.692 306.777V296.178L222.324 294.754L221.692 293.647V285.895L223.906 290.483C224.856 287.477 225.647 284.629 226.121 281.94ZM226.121 196.512V263.272C225.172 260.108 224.539 256.628 224.223 252.989C224.065 251.249 223.906 249.509 223.748 247.769L222.166 245.712L221.692 245.237V225.621L223.115 225.937H223.274C223.432 221.349 223.59 216.762 224.065 212.174C223.274 212.174 222.483 212.015 221.692 212.015V205.846C222.641 205.846 223.59 206.004 224.697 206.162C225.172 202.998 225.647 199.676 226.121 196.512ZM227.387 439.191V439.665L227.229 439.349L227.387 439.191ZM227.387 420.84V433.021C227.07 433.179 226.596 433.495 226.121 433.654V422.105L227.387 420.84ZM227.387 317.535V393.946L226.121 392.838V315.795L227.387 317.535ZM227.387 275.454V294.121L226.596 296.178L227.387 297.76V305.195L226.121 302.664V281.94C226.754 279.725 227.07 277.51 227.387 275.454ZM227.387 190.658V266.911C226.912 265.803 226.596 264.538 226.121 263.272V196.512C226.596 194.455 226.912 192.557 227.387 190.658ZM228.969 437.925V441.88L227.387 439.507V439.033C227.703 438.874 228.178 438.558 228.969 437.925ZM228.969 419.099V431.914C228.494 432.388 228.02 432.863 227.387 433.179V420.998C227.861 420.365 228.494 419.732 228.969 419.099ZM228.969 318.01V395.369C228.494 394.895 227.861 394.42 227.387 393.946V317.535L228.336 318.959L228.969 318.01ZM228.969 300.924V308.359L227.387 305.037V297.602L228.969 300.924ZM228.969 184.489V289.375C228.494 290.957 228.02 292.539 227.387 294.121V275.454C227.703 273.081 228.02 270.866 228.178 268.809L227.387 266.911V190.658C227.861 188.444 228.336 186.387 228.969 184.489ZM233.398 433.654V440.14C231.184 442.038 229.76 442.988 229.76 442.988L228.969 441.88V437.925C230.076 437.134 231.658 435.71 233.398 433.654ZM233.398 412.771V420.681C232.133 422.263 230.867 423.845 229.443 425.269C229.918 426.06 230.234 427.009 230.234 428.117C230.234 429.54 229.76 430.806 228.969 431.914V419.099C230.551 417.043 232.133 414.828 233.398 412.771ZM233.398 308.359V319.275C232.766 320.541 231.975 321.965 231.184 323.23L233.398 326.236V398.692C231.816 397.742 230.393 396.635 228.969 395.528V318.168C229.76 316.744 230.551 315.162 231.184 313.58L228.969 308.518V301.082L233.082 309.467L233.398 308.359ZM233.398 171.991V278.934C232.924 278.143 232.291 277.352 231.816 276.403C231.184 280.516 230.234 284.946 228.969 289.375V184.489C230.234 180.059 231.658 175.788 233.398 171.991ZM237.986 427.8V435.552C236.404 437.451 234.822 439.032 233.557 440.14V433.654C234.822 432.23 236.404 430.173 237.986 427.8ZM237.986 405.02V414.195C236.562 416.41 235.139 418.625 233.557 420.681V412.771C235.139 410.082 236.562 407.393 237.986 405.02ZM237.986 332.089C236.562 330.191 234.98 328.292 233.557 326.236V398.692C234.98 399.641 236.562 400.274 237.986 400.748V332.089ZM237.986 295.862V309.467C237.195 311.365 236.404 313.105 235.613 314.846L237.986 319.75V328.293C236.721 325.603 235.297 322.439 233.715 318.801L233.557 319.275V308.359C235.139 304.088 236.721 299.817 237.986 295.862ZM237.986 163.923V285.104C236.404 283.205 234.98 281.149 233.557 278.934V171.991C234.822 169.143 236.246 166.454 237.986 163.923ZM260.925 351.548L260.292 351.39C256.812 350.599 252.541 347.593 247.953 343.163C246.687 338.576 242.89 330.033 237.986 319.592V328.134C240.201 332.88 241.467 336.044 241.467 336.203C240.359 334.937 239.094 333.513 237.986 331.931V400.748C238.619 400.906 239.252 401.064 239.885 401.223C239.252 402.488 238.619 403.596 237.986 405.02V414.195C240.834 409.607 243.049 405.178 244.789 401.381H244.947C245.263 412.929 241.941 421.631 237.986 427.8V435.552C243.681 428.75 250.326 417.043 249.377 400.115C249.851 399.957 250.168 399.799 250.484 399.483C254.281 397.426 257.761 394.895 260.925 392.205V351.548ZM260.925 318.484V329.875C257.761 329.875 255.23 327.343 255.23 324.179C255.23 321.015 257.761 318.484 260.925 318.484ZM260.925 149.526V188.602C255.863 184.647 249.693 184.331 243.207 192.399C233.715 204.264 246.054 216.287 260.925 230.999V305.354C255.705 301.715 249.693 297.127 243.998 291.432C242.416 296.811 240.517 302.981 237.986 309.15V295.545C238.935 292.698 239.568 290.008 240.359 287.477C239.568 286.528 238.777 285.737 237.986 284.788V163.606C243.523 155.696 250.959 150.159 260.925 149.526ZM260.925 188.602V149.526H261.874C261.874 149.526 269.943 150.159 274.056 155.063C278.169 159.968 281.017 160.917 282.757 158.86C284.497 156.804 284.655 151.108 284.655 151.108L293.673 161.866L282.282 212.015L277.062 216.92C277.22 217.078 270.734 196.195 260.925 188.602ZM260.925 329.875C264.089 329.875 266.62 327.343 266.62 324.179C266.62 321.015 264.089 318.484 260.925 318.484V329.875ZM260.925 392.205V351.548C281.333 355.503 280.542 321.173 273.423 314.371C271.366 312.314 266.62 309.467 260.925 305.512V231.158C275.638 245.712 292.882 262.798 293.514 284.629C294.464 323.547 287.345 369.108 260.925 392.205ZM321.832 365.47L309.809 370.848V378.6L314.239 381.29V443.779L310.284 446.152C310.284 446.152 308.702 454.694 311.391 455.169H321.99V365.47H321.832ZM321.832 186.229V360.882L309.018 365.786V344.429L315.188 340.949V211.383C302.69 211.699 302.057 243.339 302.057 243.339H294.622V184.014H305.696L306.961 189.235L321.832 186.229ZM321.832 455.169H332.748V443.462C332.748 443.462 330.059 444.095 330.059 437.292V371.956L333.855 368.159V359.933L321.832 365.311V455.169V455.169ZM354.58 382.872V429.224L346.195 402.33V442.988L348.568 445.519V454.378H337.178V446.152L339.392 442.355V386.352L336.703 383.663L337.019 376.702L351.89 370.374C351.89 370.374 351.574 373.221 354.58 382.872ZM354.58 175.155V228.152L350.783 229.576C350.783 205.371 339.234 205.371 339.234 205.371V331.298L347.461 329.084L354.58 283.047V348.226L321.674 360.882V186.229L347.144 181.166L348.093 175.946L354.58 175.155ZM354.58 228.152L359.484 226.253V174.522L354.58 175.155V228.152ZM354.58 429.224V382.872C356.32 387.934 359.009 394.895 363.281 404.229V376.86C363.281 376.86 361.066 375.753 360.275 373.221C359.642 370.69 360.275 366.419 360.275 366.419L372.456 361.515V371.798C372.456 371.798 369.925 374.487 369.767 375.911C369.609 377.334 369.767 453.429 369.767 453.429H362.331L354.58 429.224ZM375.304 356.294V386.352H374.829C373.247 386.352 374.829 357.243 374.829 357.243C374.829 357.243 374.987 356.61 375.304 356.294ZM375.304 181.008V232.423L374.987 230.683L366.128 284.471L375.304 281.465V303.93L362.49 307.885L359.326 326.394L363.913 325.129V344.587L354.58 348.226V283.047C360.275 245.554 367.71 197.936 368.976 191.291C370.874 179.901 373.564 181.166 373.564 181.166C373.564 181.166 374.355 181.167 375.304 181.008ZM391.44 353.921V452.163L382.581 453.429V440.931L385.112 438.4V380.657C385.112 370.532 383.53 370.848 383.53 370.848C379.575 370.69 378.31 386.194 378.31 386.194H375.304V356.136C375.778 355.661 376.569 355.345 378.151 355.503C381.474 355.977 382.581 356.927 382.581 356.927L391.44 353.921ZM391.44 188.285V336.835L384.479 339.208V316.269L390.016 314.529L387.96 299.975L375.462 303.93V281.465L384.638 278.46L375.462 232.581V181.166C377.36 180.85 380.366 180.534 384.005 180.534C389.7 180.534 390.649 183.698 390.649 183.698L391.44 188.285ZM391.44 452.163V353.921L402.04 350.124C402.04 350.124 402.04 345.062 404.887 345.062C407.735 345.062 408.526 347.118 408.526 347.118V376.069H402.831C401.723 363.255 398.401 366.419 398.401 366.419V435.869L400.616 439.824V450.898L391.44 452.163ZM426.719 341.581V356.294C426.244 357.401 426.086 358.825 426.086 360.882V376.069C426.086 376.069 425.928 376.86 426.719 377.651V392.522C426.402 393.629 426.086 395.528 426.086 398.375V431.439C426.086 431.439 426.086 432.23 426.719 433.021V445.835L411.532 449.157V438.558C411.532 438.558 414.537 436.185 414.537 433.179V361.356C414.537 361.356 412.481 360.091 411.532 356.452C410.582 352.814 413.272 346.486 413.272 346.486L426.719 341.581ZM426.719 176.42V324.812L391.44 336.677V188.127L413.43 307.568L421.182 305.195V197.303H416.91V176.579L426.719 176.42ZM426.719 356.294V341.581L439.533 336.835C439.533 336.835 442.064 335.886 442.064 339.683V357.56C442.064 357.56 441.115 360.724 438.426 360.724C435.736 360.724 434.471 358.351 434.471 358.351V354.87C434.471 354.87 433.205 353.763 430.516 353.763C428.775 354.079 427.51 354.554 426.719 356.294ZM426.719 392.522V377.651C427.352 378.284 428.617 378.758 431.148 378.758C436.685 378.758 435.42 371.165 435.42 371.165V369.266C435.42 369.266 435.262 366.419 438.584 366.419C441.906 366.419 441.431 369.266 441.431 369.266V393.471C441.431 393.471 441.273 396.477 438.9 396.477C436.527 396.477 435.262 394.42 435.262 394.42V388.725L428.143 390.623C427.826 390.623 427.193 390.94 426.719 392.522ZM426.719 445.835V433.021C427.352 433.654 428.459 434.287 430.516 434.287C435.103 434.287 435.262 427.484 435.262 427.484V418.625C435.262 418.625 435.736 415.935 437.951 415.303C440.324 414.67 440.957 418.625 440.957 418.625V442.671L426.719 445.835ZM454.404 333.039V440.456L444.912 442.671V433.021L447.443 430.49V350.915L444.437 347.593V335.728L449.974 335.412C449.816 335.095 451.556 334.146 454.404 333.039ZM454.404 175.471V193.981C450.132 191.291 445.703 192.082 445.703 192.082V251.407C445.703 251.407 449.974 250.3 454.404 245.712V277.827L452.031 268.968C446.652 267.702 444.595 270.866 444.595 270.866V298.235L450.923 296.494V316.744L426.719 324.812V176.262C434.629 176.104 446.019 175.788 454.404 175.471ZM464.687 330.824V346.486C462.63 345.062 460.574 346.96 460.574 346.96V389.358C460.574 389.358 462.63 389.832 464.687 387.143V415.935C464.054 412.613 463.421 409.607 463.105 408.184C461.839 403.596 460.099 405.652 460.099 405.652V423.687C460.099 425.427 461.681 428.275 461.681 428.275V438.874L454.404 440.456V333.039C456.935 332.089 460.574 331.14 464.687 330.824ZM464.687 175.629V311.84C462.314 311.207 462.63 308.676 462.63 308.676L454.404 277.827V245.712C458.675 240.966 463.105 232.581 463.105 217.869C463.105 203.156 458.833 196.67 454.404 193.981V175.471C457.41 175.471 460.099 175.313 461.997 175.313C462.788 175.471 463.738 175.471 464.687 175.629ZM464.687 415.935V387.143C466.743 384.453 468.8 378.442 468.8 365.47C468.8 352.497 466.743 347.909 464.687 346.486V330.824C465.32 330.824 466.111 330.666 466.902 330.666C476.552 330.666 481.14 339.05 481.14 361.515C481.14 383.979 473.388 393.629 473.388 393.629L481.298 422.738V432.705L467.218 436.66V430.015C467.06 430.332 465.794 422.58 464.687 415.935ZM485.569 419.416V432.388L484.304 432.705V421.631L485.569 419.416ZM485.569 324.812V338.576L483.038 336.044V325.445L485.569 324.812ZM485.569 200.15V230.841C482.722 244.288 476.868 252.356 475.128 253.464C472.597 254.888 472.913 257.894 472.913 257.894C472.913 257.894 482.722 287.477 483.987 288.584C484.304 288.901 484.936 288.901 485.569 288.743V306.619C480.665 308.359 469.907 311.84 466.585 311.998C465.794 311.998 465.161 311.998 464.687 311.84V175.629C473.071 176.895 481.931 184.805 485.569 200.15ZM485.569 230.841V200.15C486.36 203.473 486.835 207.27 486.993 211.383C487.468 218.66 486.677 225.304 485.569 230.841ZM485.569 306.619V288.743C486.835 288.426 488.1 287.477 488.1 287.477V305.828L485.569 306.619ZM485.569 432.388V419.416L486.518 417.834V339.525L485.569 338.576V324.812L498.067 321.174L510.248 366.893V333.355L507.559 328.767V318.484L520.373 314.213V326.394L518.158 328.767V421.314L508.983 423.845L493.321 365.628V414.986L497.751 418.467V429.066L485.569 432.388ZM538.408 309.625V350.124L537.301 344.271L533.82 376.86L538.408 375.594V387.934L531.922 390.623C531.922 390.623 531.289 396.951 531.289 398.85C531.289 400.906 532.713 402.963 532.713 402.963V415.619L521.164 420.523V408.025L523.695 406.127L536.193 310.574L538.408 309.625ZM497.909 185.912V284.946L493.954 285.895V303.772L527.018 294.912V277.827L522.43 279.092V227.519L538.25 225.621V208.377L523.221 210.592V182.432L538.25 181.957V165.663L494.428 166.928V184.805L497.909 185.912ZM557.392 420.207V425.269C554.703 428.275 547.267 437.767 551.539 442.671C553.279 444.728 555.335 444.411 557.392 443.146V450.898C553.753 453.112 550.273 453.903 548.533 453.112C543.945 451.214 536.668 443.62 553.121 424.636C554.544 423.054 555.968 421.472 557.392 420.207ZM557.392 383.821V402.963L542.363 411.664V400.274L545.527 397.11L544.103 385.561L538.25 388.092V375.753L542.838 374.487L538.25 350.282V309.783L546.318 306.303L557.392 383.821ZM538.408 182.274V165.979L551.539 165.505V190.5C551.539 190.5 550.115 191.924 546.318 191.924C542.521 191.924 541.097 190.817 541.097 190.817V181.957L538.408 182.274ZM538.408 225.937L540.939 225.621V233.531H548.849C548.849 233.531 549.324 254.729 557.55 269.284V178.952C554.861 184.647 552.804 191.45 551.222 199.518L540.465 201.258V208.377L538.408 208.693V225.937ZM560.081 440.931V448.999C559.29 449.632 558.341 450.265 557.55 450.739V442.988C558.341 442.513 559.29 441.722 560.081 440.931ZM560.081 418.15V435.236C555.81 433.812 558.341 424.32 558.341 424.32L557.392 425.269V420.207C558.341 419.416 559.132 418.783 560.081 418.15ZM560.081 389.832V401.381L557.55 402.805V383.663L558.183 388.725L560.081 389.832ZM560.081 302.031V331.298C559.607 331.298 559.29 331.14 559.29 331.14V302.822L560.081 302.031ZM557.392 269.284C558.183 270.708 558.974 272.132 559.923 273.397V174.047C558.974 175.629 558.183 177.212 557.392 178.952V269.284ZM560.081 401.539L560.872 401.065V390.465L560.081 389.991V401.539ZM576.218 408.5V418.941C573.212 419.416 570.681 419.732 568.782 420.207C560.081 422.421 560.714 429.857 562.929 430.332C564.986 430.806 572.579 425.427 572.579 425.427C571.314 436.818 565.618 444.569 560.081 448.841V440.773C562.613 437.925 564.669 434.445 564.669 434.445C562.613 435.394 561.189 435.394 560.081 435.078V418.15C564.669 414.353 570.206 411.347 576.218 408.5ZM576.218 300.291V394.737L566.409 399.324V388.725L571.314 385.877V314.846C565.618 313.264 565.618 326.869 564.986 329.716C564.353 331.773 561.505 331.615 560.081 331.457V302.19C562.771 299.817 564.511 298.867 566.409 299.975C568.624 301.24 571.155 301.873 571.155 301.873L576.218 300.291ZM560.081 273.397C563.878 278.776 569.257 282.573 576.218 283.206V242.073C574.478 234.322 572.896 224.513 571.314 212.332C567.991 187.494 572.579 178.161 576.218 174.838V158.227C570.206 160.917 564.669 165.979 560.081 174.047V273.397ZM576.218 394.737V300.291C579.54 299.342 583.495 298.235 584.444 297.918C586.343 297.444 586.343 296.494 587.608 294.438C588.716 292.381 593.303 292.856 593.303 292.856V321.015H588.399C588.399 308.834 583.337 311.523 583.337 311.523V378.284C583.337 381.606 585.552 381.606 585.552 381.606V390.307L576.218 394.737ZM604.694 397.584V402.647C598.366 404.861 592.196 406.76 587.134 408.5C593.462 408.342 599.315 407.709 604.694 406.443V414.037C595.044 416.884 584.128 417.992 576.218 419.099V408.658C585.235 404.387 595.36 400.906 604.694 397.584ZM604.694 293.33V380.657L595.676 385.086V375.436L597.417 372.272V308.834L595.676 305.828V296.336L604.694 293.33ZM576.218 283.206C579.065 283.364 582.071 283.047 585.393 282.256C593.303 280.2 599.631 276.561 604.694 272.132V162.499C595.993 156.013 585.552 154.114 576.218 158.386V174.997C578.274 173.098 580.015 172.94 580.015 172.94C591.721 168.511 597.258 199.992 598.999 211.699C600.739 223.406 605.643 263.589 593.145 264.696C584.602 265.329 580.015 258.684 576.218 242.073V283.206ZM604.694 380.815L613.711 376.385V368.001L610.389 364.679V303.455L613.395 300.449V290.483L604.852 293.33V380.815H604.694ZM618.615 428.275V429.857L617.192 430.648L618.615 428.275ZM618.615 411.348V419.574C617.983 419.89 617.35 419.89 616.717 419.732C615.293 419.099 614.977 416.568 616.084 414.353C616.717 412.93 617.666 411.822 618.615 411.348ZM618.615 401.697C614.502 403.596 609.756 405.178 604.694 406.285V413.879C607.7 412.929 610.705 411.822 613.553 410.557C615.293 409.766 617.033 408.816 618.615 407.867V401.697ZM618.615 392.364V397.268C614.028 399.324 609.282 401.065 604.694 402.647V397.584C609.598 395.844 614.344 394.104 618.615 392.364ZM618.615 303.613V362.306C616.242 357.085 614.66 348.7 614.186 335.728C613.711 321.806 615.61 311.207 618.615 303.613ZM604.694 271.973C611.338 266.278 615.768 259.317 618.615 252.989V180.059C615.135 172.466 610.231 166.454 604.694 162.341V271.973ZM618.615 419.416C619.565 418.941 620.514 417.834 621.305 416.41C622.254 414.037 621.938 411.664 620.514 411.031C619.881 410.715 619.248 410.873 618.615 411.189V419.416ZM633.803 402.014V416.726L630.639 422.896L618.774 429.699V428.117L633.803 402.014ZM633.803 392.364C629.689 395.686 624.627 399.008 618.774 401.697V408.025C624.943 404.545 630.322 400.59 633.803 397.742V392.364ZM633.803 384.612V388.883C629.215 392.047 624.152 394.737 618.774 397.11V392.205C624.469 389.991 629.689 387.459 633.803 384.612ZM633.803 285.737V297.602C632.695 296.02 631.588 295.545 630.48 296.336C622.412 303.455 625.893 341.739 633.803 352.972V368.001C627.316 370.532 622.096 369.899 618.774 362.464V303.772C622.887 293.33 628.74 287.952 633.012 286.211L633.803 285.737ZM618.615 252.989C623.203 242.706 624.152 233.847 624.152 233.847C624.152 233.847 626.367 245.396 633.803 254.73V165.979C627.791 177.053 623.994 192.873 623.994 213.756C625.102 200.783 623.045 189.393 618.774 180.059V252.989H618.615ZM637.758 416.726L633.961 424.004L637.758 422.263V416.726ZM637.758 395.053V409.133L633.644 416.885V402.172L637.758 395.053ZM637.758 388.725C636.492 389.99 635.226 391.098 633.644 392.364V397.742C635.385 396.319 636.808 395.053 637.758 394.262V388.725ZM637.758 381.131V385.561C636.492 386.668 635.068 387.776 633.644 388.725V384.454C635.226 383.504 636.65 382.397 637.758 381.131ZM637.758 355.978V364.995C636.176 366.577 635.068 367.368 635.068 367.368L633.644 368.001V352.972C635.068 354.712 636.334 355.661 637.758 355.978ZM637.758 284.946V308.834C636.492 303.771 635.226 299.658 633.644 297.444V285.579C634.91 285.262 636.334 284.946 637.758 284.946ZM633.803 254.73C635.068 256.153 636.334 257.735 637.916 259.001V159.493C636.492 161.392 635.068 163.606 633.803 165.979V254.73ZM647.408 416.885V424.478L645.826 425.111C645.826 422.263 646.459 419.416 647.408 416.885ZM647.408 398.533L637.916 416.726V422.263L642.978 420.049C642.978 420.049 644.244 416.726 647.408 411.98V398.533ZM647.408 377.335V390.782L637.916 408.975V394.895L639.181 392.838C639.181 392.838 638.707 393.155 637.916 393.946V388.567C642.029 384.612 645.193 380.657 647.408 377.335ZM647.408 364.679L642.662 366.735C643.769 372.43 641.871 377.176 637.758 381.131V385.561C642.029 381.764 645.509 377.334 647.25 372.114V364.679H647.408ZM647.408 289.534V351.232C644.086 358.034 640.289 362.464 637.916 364.837V355.819H638.232C643.769 355.978 642.029 326.394 637.916 308.676V284.788C640.922 284.788 644.402 285.895 647.408 289.534ZM637.758 259.159C640.447 261.532 643.611 263.431 647.25 264.696V207.111L646.459 201.258C644.402 185.912 645.351 176.737 647.25 171.042V150.317C643.769 152.532 640.605 155.696 637.758 159.493V259.159ZM647.408 351.232V289.534C651.205 294.28 654.052 303.139 654.052 319.117C654.052 333.197 651.046 343.638 647.408 351.232ZM647.408 372.272C648.357 369.741 648.832 367.051 648.99 364.046L647.408 364.679V372.272ZM647.408 390.782L660.697 365.311L651.837 369.266C651.837 369.266 650.572 372.589 647.408 377.335V390.782V390.782ZM676.042 392.205C663.228 397.901 651.521 405.494 647.408 417.043V424.636L651.996 422.58C649.781 410.556 660.697 403.279 676.042 397.11V392.205V392.205ZM676.042 369.741C675.093 370.215 674.144 371.323 673.511 372.747C672.562 375.12 672.878 377.493 674.144 378.126C674.776 378.284 675.409 378.284 676.042 377.967V369.741V369.741ZM676.042 359.458V361.04L655.634 396.477C655.634 396.477 664.019 388.092 676.042 381.448V387.776C661.171 394.578 652.154 404.861 647.408 412.139V398.692L664.177 366.577L676.042 359.458ZM676.042 295.229V333.197L665.443 308.518V337.626C665.443 343.322 668.448 343.005 668.448 343.005V350.441L655.634 354.87V349.175L658.165 344.745V293.963C655.001 291.748 655.318 288.743 655.318 288.743L656.425 282.256L669.081 281.465L676.042 295.229ZM676.042 149.052V221.666C675.567 212.965 674.46 204.738 673.827 200.467C672.087 188.918 666.708 157.753 655.001 162.182C655.001 162.182 650.097 162.499 647.25 171.042V150.317C656.425 144.306 666.866 143.989 676.042 149.052ZM647.408 264.696C652.628 266.436 659.115 266.911 666.866 264.696C670.347 263.747 673.353 262.481 676.2 260.899V235.904C675.567 245.079 673.353 252.357 668.29 252.831C656.583 253.78 652.312 240.65 647.566 207.111V264.696H647.408ZM676.042 333.197V295.229L683.003 309.15V289.692L678.89 287.319V281.307L691.862 277.827V285.579L689.173 288.426V343.638L681.579 345.695L676.042 333.197ZM676.042 361.04V359.458L677.308 358.667L676.042 361.04ZM676.042 377.967C676.991 377.493 677.94 376.385 678.573 374.962C679.681 372.747 679.364 370.215 677.94 369.583C677.308 369.266 676.675 369.424 676.042 369.741V377.967V377.967ZM709.897 371.481V384.454C698.348 389.041 686.167 392.838 675.884 397.11V392.205C686.8 387.459 698.665 384.137 707.366 380.973C694.71 381.131 684.427 383.821 675.884 387.618V381.29C677.466 380.34 679.206 379.391 680.946 378.6C689.647 374.645 700.563 372.747 709.897 371.481ZM709.897 275.77V294.754L709.58 293.489L704.834 315.953L709.897 315.162V323.388L703.411 324.654L702.461 329.558L704.36 331.773V339.367L693.128 343.322V335.57L695.501 332.88L707.682 275.612H709.897V275.77ZM676.042 260.899C701.354 246.187 699.297 206.162 699.297 206.162V243.181C699.297 243.181 699.614 245.237 695.184 245.237V258.843L709.897 258.21V150.159H695.184V161.233H698.981V188.127C695.975 168.352 686.958 154.905 675.884 149.052V221.666C676.2 226.412 676.2 231.474 675.884 235.904V260.899H676.042ZM737.107 338.576V346.327C733.31 348.859 729.988 354.87 729.988 354.87C740.271 350.441 736.158 365.153 736.158 365.153L737.107 364.204V369.266C729.83 375.594 720.18 380.34 709.897 384.454V371.481C716.541 370.532 722.236 369.899 725.875 368.95C734.576 366.735 733.785 359.458 731.728 358.983C729.672 358.351 722.078 363.888 722.078 363.888C723.66 350.599 730.937 342.372 737.107 338.576ZM737.107 275.454V332.88H731.096L713.694 337.468V331.14C713.694 331.14 717.332 328.451 717.332 327.027C717.332 325.445 716.541 322.597 716.541 322.597L709.897 323.863V315.32L714.959 314.529L709.897 294.754V275.77H718.598L729.197 322.439C729.197 322.439 730.463 327.027 733.943 327.027C737.424 327.027 736.474 317.535 736.474 317.535V285.262C736.474 285.262 731.728 282.889 731.728 281.149V275.454H737.107ZM709.897 258.21L736.316 256.944L737.107 256.628V235.271C730.779 244.605 722.869 244.763 722.869 244.763V162.024C722.869 162.024 730.779 161.55 737.107 170.409V151.741C732.994 150.476 728.881 150.001 725.559 150.001H709.897V258.21ZM737.107 332.88V275.454H750.08V282.415C750.08 282.415 746.757 283.206 747.232 285.262C747.707 287.319 747.232 323.072 747.232 323.072C747.232 323.072 747.707 327.027 751.187 327.027C754.509 327.027 755.458 319.592 755.458 319.592L761.47 316.111V333.197H737.107V332.88ZM737.107 369.108V364.046C739.797 361.04 747.232 351.548 742.961 346.644C741.22 344.587 739.164 344.904 737.107 346.327V338.576C740.904 336.361 744.226 335.57 745.966 336.361C750.712 338.259 757.99 345.853 741.537 364.837C740.271 366.419 738.689 367.843 737.107 369.108ZM737.107 256.786C741.853 255.046 767.798 243.814 767.798 203.631C767.798 169.46 751.345 156.171 737.107 152.058V170.725C741.22 176.421 744.701 186.229 744.701 202.84C744.701 219.451 741.22 229.418 737.107 235.587V256.786Z" fill="#4E2C18"></path><path fill-rule="evenodd" clip-rule="evenodd" d="M801.178 157.752H801.02C797.223 157.752 793.743 159.334 791.212 161.866C788.681 164.397 787.099 167.877 787.099 171.674C787.099 175.471 788.681 178.951 791.212 181.482C793.743 184.014 797.223 185.596 801.02 185.596H801.178V183.381H801.02C797.856 183.381 794.85 182.115 792.794 179.9C790.737 177.844 789.313 174.838 789.313 171.674C789.313 168.51 790.579 165.504 792.794 163.448C794.85 161.391 797.856 160.125 801.02 160.125H801.178V157.752ZM797.54 170.883H801.178V172.781C801.02 172.781 800.862 172.623 800.704 172.623C800.546 172.623 800.229 172.623 799.755 172.623H797.54V178.793H795.8V165.188H801.178V166.77H797.54V170.883ZM801.178 185.596C804.975 185.437 808.456 184.014 810.829 181.482C813.36 178.951 814.942 175.471 814.942 171.674C814.942 167.877 813.36 164.397 810.829 161.866C808.297 159.334 804.975 157.911 801.178 157.752V159.967C804.342 159.967 807.19 161.391 809.247 163.289C811.303 165.346 812.727 168.352 812.727 171.516C812.727 174.838 811.461 177.686 809.247 179.742C807.19 181.799 804.342 183.223 801.178 183.223V185.596ZM801.178 170.883H801.495C802.286 170.883 802.919 170.725 803.393 170.567C803.868 170.408 804.184 170.092 804.501 169.776C804.659 169.459 804.817 168.985 804.817 168.51C804.817 167.877 804.659 167.403 804.184 166.928C803.71 166.453 802.919 166.295 801.969 166.295H801.337V164.713H801.969C803.235 164.713 804.184 164.871 804.817 165.188C805.45 165.346 805.924 165.821 806.399 166.453C806.715 167.086 807.032 167.719 807.032 168.51C807.032 169.459 806.715 170.25 806.083 171.041C805.45 171.674 804.501 172.149 803.235 172.307C803.71 172.623 804.026 172.781 804.342 172.94C804.817 173.414 805.292 174.047 805.766 174.838L808.139 178.635H805.924L804.026 175.787C803.551 174.996 803.077 174.363 802.76 173.889C802.444 173.414 802.128 173.098 801.811 173.098L801.495 172.94V170.883H801.178Z" fill="#231F20"></path></g><defs><clipPath id="clip0"><rect width="900" height="600" fill="white"></rect></clipPath></defs></svg> 